#!OML:ASF H:\Dans Jumps\Project 1\Capture day 1\Session 1\subject.ASF
:FULLY-SPECIFIED
:DEGREES
643
root 0.0818909 17.8431 -5.13631 14.0409 -1.68898 -1.74613
lowerback 0.270856 0.096161 -0.674481
upperback 4.8331 0.0932165 1.23594
thorax 4.83068 -0.0117387 1.65885
lowerneck -13.8553 0.95809 -0.554103
upperneck 29.2872 1.69677 -0.600564
head 11.8876 0.615864 0.109863
rclavicle -4.14963e-015 -2.38542e-015
rhumerus -35.1014 -4.12708 -82.208
rradius 39.2884
rwrist 19.5922
rhand -23.0857 -27.9811
rfingers 7.12502
rthumb 3.36037 -57.9344
lclavicle -4.14963e-015 -2.38542e-015
lhumerus -35.2158 -7.54985 89.9501
lradius 39.197
lwrist 25.0772
lhand -28.501 -6.73783
lfingers 7.12502
lthumb -1.86974 23.2337
rfemur -19.9339 -4.75261 21.5085
rtibia 20.3617
rfoot -12.9769 -1.67939
rtoes 19.6576
lfemur -17.5492 7.24863 -18.4657
ltibia 17.1327
lfoot -10.8423 4.59967
ltoes 9.27306
644
root 0.0825177 17.843 -5.13688 14.0247 -1.69549 -1.74993
lowerback 0.256677 0.0980799 -0.669325
upperback 4.83758 0.0956017 1.23648
thorax 4.84337 -0.0104646 1.65669
lowerneck -13.8681 0.969891 -0.558233
upperneck 29.3681 1.71445 -0.595064
head 11.9221 0.623242 0.115414
rclavicle -3.95085e-015 -1.68967e-015
rhumerus -35.0783 -4.16399 -82.2132
rradius 39.2639
rwrist 19.5903
rhand -23.0767 -27.9737
rfingers 7.12502
rthumb 3.36904 -57.9268
lclavicle -3.95085e-015 -1.68967e-015
lhumerus -35.1886 -7.53914 89.937
lradius 39.1436
lwrist 25.0662
lhand -28.4996 -6.72089
lfingers 7.12502
lthumb -1.86839 23.2507
rfemur -19.9168 -4.75008 21.5084
rtibia 20.3588
rfoot -12.9755 -1.67677
rtoes 19.6519
lfemur -17.5279 7.24939 -18.4626
ltibia 17.125
lfoot -10.8385 4.60593
ltoes 9.25661
645
root 0.0832422 17.8429 -5.13752 14.0093 -1.70433 -1.75125
lowerback 0.242623 0.101291 -0.665682
upperback 4.84158 0.0998072 1.23559
thorax 4.85543 -0.00830772 1.65397
lowerneck -13.8789 0.979188 -0.560521
upperneck 29.4506 1.72834 -0.590454
head 11.9569 0.629006 0.119783
rclavicle 5.2181e-015 6.11263e-015
rhumerus -35.0569 -4.19612 -82.2203
rradius 39.2409
rwrist 19.5882
rhand -23.064 -27.9607
rfingers 7.12502
rthumb 3.38129 -57.9136
lclavicle 5.2181e-015 6.11263e-015
lhumerus -35.1609 -7.53122 89.9238
lradius 39.0914
lwrist 25.0473
lhand -28.4949 -6.68961
lfingers 7.12502
lthumb -1.86391 23.282
rfemur -19.9023 -4.74791 21.5051
rtibia 20.3581
rfoot -12.9743 -1.67131
rtoes 19.6476
lfemur -17.5076 7.25237 -18.4632
ltibia 17.1179
lfoot -10.836 4.61226
ltoes 9.24204
646
root 0.0840774 17.8428 -5.13822 13.9945 -1.71623 -1.74918
lowerback 0.229088 0.105522 -0.664496
upperback 4.84464 0.105508 1.23305
thorax 4.86615 -0.00545732 1.65099
lowerneck -13.891 0.988081 -0.561503
upperneck 29.5415 1.74163 -0.586492
head 11.9955 0.634489 0.123647
rclavicle -6.55989e-015 -8.29926e-015
rhumerus -35.0374 -4.22139 -82.2298
rradius 39.2205
rwrist 19.5875
rhand -23.0428 -27.9489
rfingers 7.12502
rthumb 3.4018 -57.9015
lclavicle -6.55989e-015 -8.29926e-015
lhumerus -35.1341 -7.52658 89.9116
lradius 39.0401
lwrist 25.0228
lhand -28.4905 -6.65462
lfingers 7.12502
lthumb -1.85968 23.317
rfemur -19.89 -4.74602 21.4974
rtibia 20.3592
rfoot -12.9726 -1.66359
rtoes 19.6459
lfemur -17.4881 7.25767 -18.4688
ltibia 17.112
lfoot -10.8342 4.61865
ltoes 9.2341
